Coordinates
version=1
nRows=49
nColumns=12
inDegrees=yes

Units are S.I. units (second, meters, Newtons, ...)
Angles are in degrees

endheader
time	SC_y	SC_z	SC_x	AC_y	AC_z	AC_x	GH_y	GH_z	GH_yy	EL_x	PS_y
       0.0               -38.0          26.28          38.84          54.95         -12.91         -1.181          -89.9          23.35          54.65          40.36          27.03
   0.03895               -38.0          26.28          38.85          54.95         -12.91         -1.179         -89.91          23.35          54.63          40.36          27.03
   0.07789               -38.0          26.28          38.85          54.95         -12.91         -1.176         -89.91          23.35          54.61          40.35          27.04
    0.1168               -38.0          26.28          38.85          54.95         -12.91         -1.173         -89.92          23.35          54.59          40.35          27.04
    0.1558               -38.0          26.28          38.85          54.95         -12.91          -1.17         -89.93          23.35          54.57          40.34          27.05
    0.1947               -38.0          26.28          38.85          54.95         -12.91         -1.167         -89.94          23.35          54.54          40.34          27.06
    0.2337               -38.0          26.28          38.86          54.96         -12.91         -1.163         -89.95          23.35          54.52          40.33          27.06
    0.2726               -38.0          26.28          38.86          54.96         -12.91         -1.159         -89.95          23.35          54.49          40.33          27.07
    0.3116               -38.0          26.28          38.86          54.96         -12.91         -1.155         -89.96          23.35          54.46          40.32          27.07
    0.3505              -38.01          26.28          38.86          54.96         -12.91         -1.151         -89.98          23.35          54.43          40.32          27.08
    0.3895              -38.01          26.28          38.87          54.96         -12.91         -1.146         -89.99          23.35          54.39          40.31          27.09
    0.4284              -38.01          26.28          38.87          54.96         -12.92         -1.141          -90.0          23.35          54.35           40.3           27.1
    0.4674              -38.01          26.28          38.87          54.96         -12.92         -1.136         -90.01          23.36          54.31          40.29          27.11
    0.5063              -38.01          26.28          38.88          54.96         -12.92          -1.13         -90.03          23.36          54.27          40.29          27.12
    0.5453              -38.01          26.28          38.88          54.96         -12.92         -1.124         -90.04          23.36          54.22          40.28          27.13
    0.5842              -38.01          26.29          38.89          54.96         -12.92         -1.117         -90.06          23.36          54.17          40.27          27.14
    0.6232              -38.02          26.29          38.89          54.97         -12.92         -1.109         -90.08          23.36          54.11          40.25          27.15
    0.6621              -38.02          26.29           38.9          54.97         -12.93         -1.101          -90.1          23.36          54.05          40.24          27.17
     0.701              -38.02          26.29           38.9          54.97         -12.93         -1.092         -90.12          23.36          53.99          40.23          27.18
      0.74              -38.02          26.29          38.91          54.97         -12.93         -1.082         -90.15          23.36          53.91          40.22           27.2
    0.7789              -38.02          26.29          38.92          54.97         -12.93         -1.072         -90.17          23.36          53.84           40.2          27.22
    0.8179              -38.03          26.29          38.93          54.98         -12.93          -1.06          -90.2          23.36          53.75          40.18          27.24
    0.8568              -38.03           26.3          38.93          54.98         -12.94         -1.047         -90.23          23.36          53.65          40.16          27.26
    0.8958              -38.03           26.3          38.94          54.98         -12.94         -1.033         -90.27          23.36          53.54          40.14          27.28
    0.9347              -38.04           26.3          38.96          54.98         -12.94         -1.017         -90.31          23.36          53.42          40.12          27.31
    0.9737              -38.04           26.3          38.97          54.99         -12.95        -0.9987         -90.35          23.37          53.29          40.09          27.34
     1.013              -38.05          26.31          38.98          54.99         -12.95        -0.9786          -90.4          23.37          53.14          40.06          27.37
     1.052              -38.05          26.31           39.0          54.99         -12.96        -0.9561         -90.46          23.37          52.97          40.03          27.41
     1.091              -38.06          26.31          39.01           55.0         -12.96        -0.9307         -90.52          23.37          52.78          39.99          27.46
     1.129              -38.07          26.32          39.03          55.01         -12.97        -0.9018         -90.59          23.37          52.57          39.95          27.51
     1.168              -38.07          26.32          39.06          55.01         -12.98        -0.8688         -90.68          23.38          52.32           39.9          27.56
     1.207              -38.08          26.33          39.08          55.02         -12.99        -0.8309         -90.77          23.38          52.04          39.85          27.63
     1.246              -38.09          26.33          39.11          55.03          -13.0        -0.7872         -90.88          23.38          51.72          39.79           27.7
     1.285               -38.1          26.34          39.15          55.04         -13.01        -0.7364          -91.0          23.39          51.34          39.71          27.79
     1.324              -38.12          26.35          39.19          55.05         -13.02         -0.677         -91.15          23.39          50.89          39.62          27.89
     1.363              -38.14          26.36          39.23          55.06         -13.04        -0.6069         -91.32           23.4          50.37          39.52          28.01
     1.402              -38.16          26.37          39.29          55.08         -13.06        -0.5237         -91.53          23.41          49.75           39.4          28.15
     1.441              -38.18          26.39          39.36           55.1         -13.08        -0.4239         -91.78          23.41          49.01          39.26          28.32
      1.48              -38.21           26.4          39.44          55.12         -13.11        -0.3031         -92.08          23.42          48.11          39.08          28.52
     1.519              -38.24          26.42          39.54          55.15         -13.14        -0.1556         -92.44          23.44          47.01          38.86          28.77
     1.558              -38.29          26.45          39.66          55.18         -13.19         0.0264         -92.89          23.45          45.66           38.6          29.08
     1.597              -38.34          26.48          39.82          55.23         -13.24         0.2534         -93.46          23.47          43.96          38.27          29.47
     1.636              -38.41          26.52          40.01          55.28         -13.31         0.5393         -94.17          23.49          41.83          37.85          29.95
     1.675               -38.5          26.58          40.26          55.35         -13.39         0.9029         -95.07          23.52          39.13          37.32          30.57
     1.714              -38.61          26.64          40.57          55.44          -13.5          1.368         -96.22          23.56          35.66          36.64          31.36
     1.753              -38.75          26.73          40.98          55.55         -13.64          1.965          -97.7          23.61          31.21          35.77          32.37
     1.792              -38.93          26.84          41.49           55.7         -13.81          2.728         -99.59          23.68          25.53          34.66          33.67
     1.831              -39.16          26.98          42.14          55.88         -14.03          3.687         -102.0          23.75          18.39          33.26          35.29
     1.869              -39.44          27.14          42.94           56.1         -14.31          4.856         -104.9          23.85          9.684          31.56          37.28
